<svg width="30" height="30" viewBox="0 0 30 30" fill="none" xmlns="http://www.w3.org/2000/svg">
<path d="M19.2324 15.0055L29.1047 5.13321C29.3867 4.85581 29.611 4.52531 29.7647 4.16077C29.9184 3.79624 29.9983 3.4049 30 3.00931C30.0016 2.61372 29.9249 2.22172 29.7744 1.85591C29.6238 1.49011 29.4022 1.15774 29.1225 0.877979C28.8428 0.598219 28.5105 0.376605 28.1447 0.22592C27.779 0.0752344 27.387 -0.00154059 26.9914 2.34231e-05C26.5958 0.00158743 26.2044 0.0814597 25.8399 0.235033C25.4753 0.388606 25.1448 0.61284 24.8673 0.894802L14.995 10.7671L5.12268 0.895801C4.84438 0.617503 4.51399 0.396745 4.15038 0.246132C3.78677 0.095518 3.39705 0.0179979 3.00347 0.0179979C2.6099 0.0179979 2.22018 0.095518 1.85657 0.246132C1.49296 0.396745 1.16257 0.617503 0.88427 0.895801C0.322223 1.45785 0.00646762 2.22015 0.00646762 3.01501C0.00646762 3.80986 0.322223 4.57216 0.88427 5.13421L10.7566 15.0055L0.860296 24.9018C0.305922 25.4654 -0.00328556 26.2252 2.63332e-05 27.0158C0.00333823 27.8064 0.318901 28.5636 0.877978 29.1225C1.43706 29.6815 2.19435 29.9969 2.98491 30C3.77546 30.0031 4.53522 29.6937 5.0987 29.1392L14.994 19.2439L24.8653 29.1152C25.4507 29.7006 26.2178 29.9933 26.984 29.9933C27.7502 29.9933 28.5173 29.7006 29.1027 29.1152C29.3811 28.8371 29.602 28.5068 29.7527 28.1433C29.9034 27.7797 29.9809 27.3901 29.9809 26.9965C29.9809 26.603 29.9034 26.2133 29.7527 25.8498C29.602 25.4862 29.3811 25.156 29.1027 24.8778L19.2324 15.0055Z" fill="#31373D"/>
</svg>
