<svg width="45" height="45" viewBox="0 0 45 45" fill="none" xmlns="http://www.w3.org/2000/svg">
<path d="M25.9967 20.0111L25.9967 6.0496C26 5.65402 25.9249 5.26171 25.7758 4.8953C25.6267 4.52888 25.4065 4.19561 25.128 3.91472C24.8494 3.63382 24.518 3.41086 24.1528 3.25868C23.7877 3.10651 23.396 3.02814 23.0004 3.02809C22.6048 3.02805 22.2131 3.10633 21.848 3.25841C21.4828 3.4105 21.1513 3.63339 20.8727 3.91422C20.5941 4.19505 20.3738 4.52826 20.2246 4.89464C20.0754 5.26102 20.0002 5.65332 20.0034 6.0489L20.0034 20.0104L6.04257 20.0111C5.649 20.0111 5.25928 20.0887 4.89567 20.2393C4.53205 20.3899 4.20167 20.6107 3.92337 20.8889C3.64507 21.1672 3.42431 21.4976 3.2737 21.8612C3.12309 22.2249 3.04557 22.6146 3.04557 23.0082C3.04557 23.803 3.36132 24.5653 3.92337 25.1274C4.48542 25.6894 5.24772 26.0052 6.04257 26.0052L20.0034 26.0045L20.0034 39.9999C20.0099 40.7904 20.3286 41.5464 20.8899 42.103C21.4513 42.6597 22.2099 42.972 23.0004 42.9719C23.791 42.9718 24.5495 42.6593 25.1107 42.1025C25.6719 41.5457 25.9904 40.7897 25.9967 39.9992L25.9967 26.0052L39.9569 26.0052C40.7847 26.0052 41.5341 25.6697 42.0759 25.1279C42.6176 24.5861 42.9532 23.8367 42.9532 23.0089C42.9534 22.6153 42.876 22.2256 42.7255 21.862C42.575 21.4984 42.3543 21.168 42.076 20.8897C41.7977 20.6114 41.4674 20.3907 41.1037 20.2402C40.7401 20.0897 40.3504 20.0124 39.9569 20.0126L25.9967 20.0111Z" fill="#31373D"/>
</svg>
